<?xml version="1.0" encoding="UTF-8"?>
<svg id="Layer_1" xmlns="http://www.w3.org/2000/svg" version="1.1" viewBox="0 0 841.9 595.3">
  <!-- Generator: Adobe Illustrator 29.8.2, SVG Export Plug-In . SVG Version: 2.1.1 Build 3)  -->
  <defs>
    <style>
      .st0 {
        fill: #ababab;
      }

      .st1 {
        fill: #1a3f71;
      }

      .st2 {
        fill: #fff;
      }

      .st3 {
        fill: #f47920;
      }

      .st4 {
        fill: #0e5e90;
      }

      .st5 {
        display: none;
      }
    </style>
  </defs>
  <g class="st5">
    <path class="st1" d="M418.8,241.7c-3.7,1.7-7.9,2.5-12.7,2.5s-8.4-.7-12.1-2.2c-3.7-1.4-6.9-3.5-9.6-6.1-2.7-2.6-4.8-5.8-6.4-9.4-1.5-3.7-2.3-7.7-2.3-12.1s.8-8.6,2.3-12.3c1.6-3.7,3.7-6.8,6.5-9.4,2.8-2.6,6-4.6,9.7-5.9,3.7-1.4,7.7-2.1,12-2.1s7.9.7,11.8,2.1c3.8,1.4,7,3.5,9.4,6.2l-9.2,9.2c-1.3-1.8-2.9-3.1-5-3.9-2.1-.8-4.2-1.3-6.4-1.3s-4.6.4-6.6,1.3c-2,.9-3.7,2.1-5.1,3.6-1.4,1.5-2.5,3.4-3.3,5.5-.8,2.1-1.2,4.4-1.2,6.9s.4,4.9,1.2,7c.8,2.1,1.9,3.9,3.3,5.5,1.4,1.5,3.1,2.7,5.1,3.5,2,.9,4.1,1.3,6.5,1.3s5.1-.5,7.1-1.6c2-1.1,3.6-2.4,4.9-4.1l9.5,8.9c-2.5,2.9-5.6,5.1-9.2,6.8Z"/>
    <path class="st1" d="M471.8,222.7c0,3.2-.6,6.2-1.8,8.8-1.2,2.6-2.8,4.9-4.8,6.7-2,1.8-4.4,3.3-7,4.3-2.7,1-5.5,1.5-8.5,1.5s-5.8-.5-8.5-1.5c-2.7-1-5-2.4-7-4.3-2-1.8-3.6-4.1-4.7-6.7-1.2-2.6-1.8-5.6-1.8-8.8s.6-6.2,1.8-8.8c1.2-2.6,2.7-4.8,4.7-6.6,2-1.8,4.3-3.2,7-4.1,2.7-1,5.5-1.4,8.5-1.4s5.9.5,8.5,1.4c2.7,1,5,2.3,7,4.1,2,1.8,3.6,4,4.8,6.6,1.2,2.6,1.8,5.5,1.8,8.8ZM459.3,222.7c0-1.3-.2-2.5-.6-3.7-.4-1.2-1-2.3-1.8-3.2-.8-.9-1.8-1.7-2.9-2.3-1.2-.6-2.5-.9-4.1-.9s-2.9.3-4.1.9c-1.2.6-2.1,1.3-2.9,2.3-.8.9-1.4,2-1.8,3.2-.4,1.2-.6,2.5-.6,3.7s.2,2.5.6,3.7c.4,1.2,1,2.3,1.8,3.3.8,1,1.8,1.8,2.9,2.3,1.2.6,2.5.9,4.1.9s2.9-.3,4.1-.9c1.2-.6,2.2-1.4,2.9-2.3.8-1,1.4-2.1,1.8-3.3.4-1.2.6-2.5.6-3.7Z"/>
    <path class="st1" d="M477.9,242.7v-60.2h13.3v60.2h-13.3Z"/>
    <path class="st1" d="M526.5,215.8c-.7-1-1.8-1.7-3-2.3-1.3-.6-2.6-.9-3.9-.9s-2.6.3-3.7.8-2.1,1.3-2.9,2.2c-.8.9-1.4,2-1.9,3.2-.5,1.2-.7,2.5-.7,3.9s.2,2.7.6,3.9c.4,1.2,1,2.3,1.9,3.2.8.9,1.8,1.7,2.9,2.2,1.1.5,2.4.8,3.9.8s2.6-.3,3.9-.8c1.3-.5,2.3-1.2,3.1-2.2l7.2,8.8c-1.6,1.6-3.8,2.8-6.4,3.7-2.6.9-5.4,1.4-8.3,1.4s-6.1-.5-8.8-1.4c-2.7-1-5.1-2.4-7.1-4.2s-3.6-4-4.7-6.7c-1.1-2.6-1.7-5.5-1.7-8.8s.6-6.2,1.7-8.8c1.2-2.6,2.7-4.8,4.7-6.7,2-1.8,4.4-3.2,7.1-4.2,2.7-1,5.6-1.5,8.7-1.5s2.9.1,4.3.4c1.4.3,2.8.6,4.1,1.1,1.3.5,2.5,1,3.6,1.7,1.1.7,2,1.4,2.8,2.2l-7.6,8.8Z"/>
    <path class="st1" d="M562.9,242.7v-21.5c0-1.1,0-2.2-.2-3.2-.2-1-.5-1.9-.9-2.7-.5-.8-1-1.4-1.8-1.8-.7-.5-1.7-.7-2.9-.7-2.3,0-4,.8-5.3,2.4-1.2,1.6-1.8,3.6-1.8,6v21.4h-13.1v-60.2h13.1v25.6h.2c.9-1.6,2.3-3,4.3-4.3,2-1.2,4.3-1.9,7.1-1.9s5,.5,6.8,1.4c1.8,1,3.3,2.2,4.5,3.7,1.1,1.5,2,3.3,2.5,5.2.5,2,.8,3.9.8,5.9v24.5h-13.1Z"/>
    <path class="st1" d="M622.9,223.3v1.6c0,.5,0,1,0,1.5h-28.8c.1,1.1.4,2.1,1,3,.6.9,1.3,1.7,2.2,2.3.9.7,1.9,1.2,2.9,1.6,1.1.4,2.2.6,3.4.6,2.1,0,3.8-.4,5.3-1.2,1.4-.8,2.6-1.8,3.5-3l9.1,5.7c-1.9,2.7-4.3,4.8-7.4,6.3-3.1,1.5-6.6,2.2-10.6,2.2s-5.8-.5-8.4-1.4c-2.7-.9-5-2.3-7-4.1-2-1.8-3.6-4-4.7-6.6-1.1-2.6-1.7-5.6-1.7-8.9s.6-6.2,1.7-8.8c1.1-2.6,2.6-4.9,4.5-6.7,1.9-1.8,4.2-3.3,6.8-4.3,2.6-1,5.4-1.5,8.4-1.5s5.6.5,8,1.5c2.4,1,4.5,2.4,6.3,4.3,1.8,1.9,3.1,4.1,4.1,6.8,1,2.7,1.5,5.7,1.5,9.1ZM610.8,218.3c0-2.1-.7-3.8-2-5.3-1.3-1.5-3.3-2.2-5.9-2.2s-2.4.2-3.5.6c-1.1.4-2,.9-2.8,1.6-.8.7-1.4,1.5-1.9,2.4-.5.9-.7,1.9-.8,2.9h16.8Z"/>
    <path class="st1" d="M651.9,214.7c-1.1-1-2.3-1.9-3.7-2.5-1.4-.7-2.9-1-4.5-1s-2.3.2-3.4.7c-1,.5-1.6,1.3-1.6,2.5s.6,1.9,1.7,2.4c1.1.5,3,1,5.5,1.6,1.5.3,3,.8,4.5,1.4,1.5.6,2.9,1.4,4.1,2.3,1.2,1,2.2,2.1,2.9,3.5.7,1.4,1.1,3,1.1,4.9s-.5,4.6-1.5,6.3c-1,1.7-2.3,3.1-3.9,4.2-1.6,1.1-3.4,1.8-5.5,2.3-2,.5-4,.7-6.1.7-3.2,0-6.4-.5-9.5-1.6-3.1-1-5.7-2.6-7.8-4.6l7.3-7.7c1.2,1.3,2.6,2.3,4.3,3.2,1.7.9,3.5,1.3,5.4,1.3s2.1-.3,3.1-.8c1-.5,1.6-1.4,1.6-2.7s-.6-2.1-1.9-2.7c-1.3-.6-3.3-1.2-6-1.8-1.4-.3-2.8-.7-4.1-1.3-1.4-.5-2.6-1.2-3.7-2.2-1.1-.9-2-2-2.7-3.3-.7-1.3-1-2.9-1-4.8s.5-4.4,1.5-6.1c1-1.7,2.3-3,3.9-4.1,1.6-1.1,3.4-1.8,5.3-2.3,1.9-.5,3.9-.8,5.8-.8,3,0,5.9.5,8.7,1.4,2.8.9,5.2,2.3,7.2,4.2l-7.2,7.4Z"/>
    <path class="st1" d="M681.2,212.7v15.2c0,1.9.4,3.3,1.1,4.2s2,1.4,3.9,1.4,1.3,0,2-.2c.7-.1,1.3-.3,1.8-.5l.2,9.6c-.9.3-2,.6-3.4.8-1.4.2-2.8.4-4.1.4-2.7,0-4.9-.3-6.7-1-1.8-.7-3.3-1.6-4.3-2.9-1.1-1.3-1.9-2.7-2.3-4.5-.5-1.7-.7-3.7-.7-5.8v-16.8h-6.4v-9.7h6.3v-10.4h12.8v10.4h9.3v9.7h-9.3Z"/>
    <path class="st1" d="M733.6,223.3v1.6c0,.5,0,1,0,1.5h-28.8c.1,1.1.4,2.1,1,3,.6.9,1.3,1.7,2.2,2.3.9.7,1.9,1.2,2.9,1.6,1.1.4,2.2.6,3.4.6,2.1,0,3.8-.4,5.3-1.2,1.4-.8,2.6-1.8,3.5-3l9.1,5.7c-1.9,2.7-4.3,4.8-7.4,6.3-3.1,1.5-6.6,2.2-10.6,2.2s-5.8-.5-8.4-1.4c-2.7-.9-5-2.3-7-4.1-2-1.8-3.6-4-4.7-6.6-1.1-2.6-1.7-5.6-1.7-8.9s.6-6.2,1.7-8.8c1.1-2.6,2.6-4.9,4.5-6.7,1.9-1.8,4.2-3.3,6.8-4.3,2.6-1,5.4-1.5,8.4-1.5s5.6.5,8,1.5c2.4,1,4.5,2.4,6.3,4.3,1.8,1.9,3.1,4.1,4.1,6.8,1,2.7,1.5,5.7,1.5,9.1ZM721.6,218.3c0-2.1-.7-3.8-2-5.3-1.3-1.5-3.3-2.2-5.9-2.2s-2.4.2-3.5.6c-1.1.4-2,.9-2.8,1.6-.8.7-1.4,1.5-1.9,2.4-.5.9-.7,1.9-.8,2.9h16.8Z"/>
    <path class="st1" d="M765.1,213.7c-.6-.2-1.2-.3-1.7-.3-.6,0-1.1,0-1.6,0-1.8,0-3.2.3-4.4,1-1.2.6-2.2,1.4-2.9,2.3-.7.9-1.2,1.9-1.6,2.9-.3,1.1-.5,2-.5,2.8v20.3h-13.1v-39.6h12.6v5.7h.2c1-2,2.4-3.7,4.3-5,1.9-1.3,4-1.9,6.5-1.9s1,0,1.6,0c.5,0,.9.1,1.2.2l-.6,11.6Z"/>
    <path class="st0" d="M421.2,275.6c0,3.3-.6,6.1-1.8,8.3-1.2,2.3-2.9,4.1-4.9,5.5-2.1,1.4-4.5,2.4-7.2,3s-5.5,1-8.4,1h-6.8v21.3h-13.6v-56.4h20.7c3.1,0,6,.3,8.6.9,2.7.6,5,1.6,7,2.9,2,1.4,3.6,3.1,4.7,5.3,1.1,2.2,1.7,4.9,1.7,8.2ZM407.6,275.7c0-1.3-.3-2.4-.8-3.3-.5-.8-1.2-1.5-2.2-2-.9-.5-1.9-.8-3.1-1-1.1-.2-2.3-.2-3.5-.2h-6v13.3h5.7c1.3,0,2.5-.1,3.7-.3,1.2-.2,2.2-.6,3.1-1.1.9-.5,1.7-1.2,2.2-2.1.5-.9.8-2,.8-3.3Z"/>
    <path class="st0" d="M426.4,314.7v-60.2h13.3v60.2h-13.3Z"/>
    <path class="st0" d="M473.8,314.7v-5.5h-.2c-.5.9-1.1,1.8-1.9,2.5-.8.8-1.7,1.5-2.7,2.1-1,.6-2.2,1.1-3.4,1.4-1.2.4-2.6.6-3.9.6-2.7,0-4.9-.5-6.7-1.4-1.8-1-3.3-2.2-4.5-3.7-1.1-1.5-2-3.2-2.5-5.2-.5-1.9-.8-3.9-.8-5.9v-24.5h13.1v21.5c0,1.1,0,2.2.2,3.2.2,1,.5,1.9.9,2.7.5.8,1,1.4,1.8,1.9.7.5,1.7.7,2.9.7,2.3,0,4-.8,5.2-2.5,1.2-1.7,1.8-3.7,1.8-6v-21.4h13.1v39.7h-12.6Z"/>
    <path class="st0" d="M544.8,314.7v-21.7c0-1.1,0-2.2-.2-3.2-.2-1-.5-1.9-.9-2.7-.4-.7-1-1.3-1.7-1.8-.7-.5-1.7-.7-2.8-.7s-2.1.2-2.9.7c-.8.5-1.5,1.1-2.1,1.9-.6.8-1,1.7-1.2,2.7-.3,1-.4,2.1-.4,3.2v21.4h-13.1v-22.6c0-2.3-.5-4.1-1.4-5.4-.9-1.3-2.3-2-4.3-2s-3.7.8-4.8,2.5c-1.1,1.6-1.7,3.7-1.7,6.1v21.5h-13.1v-39.7h12.7v5.5h.2c.5-.8,1.1-1.7,1.8-2.5.7-.8,1.6-1.5,2.6-2.1,1-.6,2.1-1.1,3.4-1.5,1.2-.4,2.6-.6,4.1-.6,2.9,0,5.3.6,7.3,1.8,2,1.2,3.5,2.8,4.7,5,1.3-2.1,3-3.7,5.1-4.9,2.1-1.2,4.6-1.8,7.6-1.8s5,.5,6.8,1.5c1.8,1,3.3,2.3,4.4,3.8,1.1,1.6,1.9,3.3,2.4,5.3.5,1.9.8,3.8.8,5.7v24.5h-13.1Z"/>
    <path class="st0" d="M609.6,294.7c0,2.8-.4,5.4-1.3,8-.9,2.5-2.1,4.8-3.7,6.7-1.6,1.9-3.6,3.5-5.9,4.7-2.3,1.2-5,1.8-8,1.8s-5.2-.5-7.5-1.6c-2.4-1.1-4.2-2.6-5.5-4.7h-.2v5.2h-12v-60.2h13.1v24.8h.2c1.1-1.3,2.7-2.5,4.7-3.7,2-1.1,4.5-1.7,7.4-1.7s5.5.6,7.8,1.7,4.3,2.6,5.9,4.5c1.6,1.9,2.9,4.1,3.7,6.7.9,2.5,1.3,5.2,1.3,7.9ZM597,294.7c0-1.3-.2-2.5-.6-3.7-.4-1.2-1-2.3-1.8-3.2-.8-.9-1.8-1.7-2.9-2.3-1.2-.6-2.5-.9-4.1-.9s-2.8.3-4,.9c-1.2.6-2.2,1.4-3,2.3-.8,1-1.5,2-1.9,3.3-.5,1.2-.7,2.5-.7,3.7s.2,2.5.7,3.7c.5,1.2,1.1,2.3,1.9,3.3.8,1,1.8,1.7,3,2.3,1.2.6,2.5.9,4,.9s2.9-.3,4.1-.9c1.2-.6,2.2-1.4,2.9-2.3.8-1,1.4-2.1,1.8-3.3.4-1.2.6-2.5.6-3.8Z"/>
    <path class="st0" d="M629.6,262.3c0,1-.2,2-.6,2.8-.4.9-.9,1.6-1.6,2.3-.7.6-1.5,1.1-2.4,1.5-.9.4-1.9.6-2.9.6-2.1,0-3.9-.7-5.3-2.1-1.4-1.4-2.2-3.1-2.2-5.1s.2-1.9.6-2.7c.4-.9.9-1.6,1.6-2.3.7-.6,1.5-1.2,2.4-1.6.9-.4,1.9-.6,2.9-.6s2,.2,2.9.6c.9.4,1.7.9,2.4,1.5.7.6,1.2,1.4,1.6,2.3.4.9.6,1.8.6,2.8ZM615.6,314.7v-39.7h13.1v39.7h-13.1Z"/>
    <path class="st0" d="M662.7,314.7v-21.7c0-1.1,0-2.2-.3-3.2-.2-1-.5-1.9-.9-2.7-.4-.8-1-1.4-1.8-1.8-.8-.5-1.7-.7-2.9-.7s-2.2.2-3.1.7c-.9.5-1.6,1.1-2.2,1.9-.6.8-1,1.7-1.3,2.7-.3,1-.4,2.1-.4,3.2v21.5h-13.1v-39.7h12.7v5.5h.2c.5-.8,1.1-1.7,1.9-2.5.8-.8,1.7-1.5,2.7-2.1,1-.6,2.2-1.1,3.4-1.4,1.2-.4,2.5-.6,3.9-.6,2.7,0,4.9.5,6.8,1.4,1.9,1,3.4,2.2,4.5,3.7,1.1,1.5,2,3.3,2.5,5.2.5,2,.8,3.9.8,5.9v24.5h-13.1Z"/>
    <path class="st0" d="M725.4,310.9c0,3.9-.6,7.2-1.7,10.1-1.1,2.9-2.7,5.2-4.7,7.1-2,1.9-4.5,3.3-7.4,4.2-2.9.9-6.1,1.4-9.6,1.4s-7.1-.5-10.8-1.6c-3.7-1.1-6.9-2.6-9.6-4.6l6.5-9.3c1.9,1.7,4,3,6.3,3.8,2.3.8,4.6,1.2,6.8,1.2,3.8,0,6.7-1,8.5-3,1.8-2,2.7-4.7,2.7-8v-2.4h-.2c-1.2,1.6-2.9,2.9-4.9,3.8-2.1,1-4.4,1.4-7.1,1.4s-5.7-.5-8-1.6c-2.3-1.1-4.3-2.6-5.9-4.4-1.6-1.9-2.9-4-3.7-6.5-.8-2.5-1.3-5.1-1.3-7.8s.4-5.4,1.3-7.9c.8-2.5,2.1-4.7,3.7-6.6,1.6-1.9,3.6-3.4,5.9-4.6,2.3-1.1,5-1.7,8-1.7s4.9.5,7.2,1.5c2.3,1,4.1,2.6,5.5,4.7h.2v-5.1h12.3v35.9ZM713,294.6c0-1.3-.2-2.6-.7-3.8-.5-1.2-1.1-2.3-2-3.2-.9-.9-1.9-1.7-3-2.2-1.2-.5-2.5-.8-4-.8s-2.8.3-3.9.8c-1.1.5-2.1,1.2-2.9,2.2-.8.9-1.4,2-1.8,3.2-.4,1.2-.6,2.5-.6,3.9s.2,2.6.6,3.8c.4,1.2,1,2.3,1.8,3.2.8.9,1.8,1.7,2.9,2.2,1.1.6,2.5.8,3.9.8s2.8-.3,4-.8c1.2-.6,2.2-1.3,3-2.2.8-.9,1.5-2,1.9-3.2.5-1.2.7-2.5.7-3.9Z"/>
    <path class="st0" d="M418.2,386.7l-5.3-5.5c-1.8,1.9-4,3.5-6.7,4.7-2.6,1.2-5.9,1.9-9.8,1.9s-5-.3-7.5-1c-2.4-.7-4.6-1.7-6.5-3.1-1.9-1.4-3.4-3.2-4.5-5.3-1.1-2.1-1.7-4.6-1.7-7.4s.3-3.8,1-5.4c.6-1.6,1.5-3.1,2.6-4.4,1.1-1.3,2.4-2.4,3.8-3.3,1.4-1,2.9-1.8,4.5-2.5-1.8-1.7-3.2-3.6-4.2-5.6-1.1-2-1.6-4.2-1.6-6.7s.5-4.7,1.6-6.5c1.1-1.8,2.4-3.3,4.1-4.5s3.6-2,5.7-2.5c2.1-.5,4.2-.8,6.3-.8s4.2.3,6.3.8c2.1.6,3.9,1.4,5.5,2.6,1.6,1.2,2.9,2.7,3.9,4.5,1,1.8,1.5,4,1.5,6.5s-.3,3.4-.9,4.9c-.6,1.5-1.4,2.8-2.4,4-1,1.2-2.2,2.3-3.6,3.2-1.4,1-2.8,1.8-4.4,2.6l7.1,7.2,5.7-8.7h14.5l-12.2,16.3,14,13.9h-16.5ZM395.2,362.8c-1.6.6-3,1.5-4.2,2.7-1.2,1.1-1.8,2.8-1.8,4.9s.2,2.1.7,3c.5.9,1,1.6,1.8,2.2s1.5,1.1,2.4,1.4c.9.3,1.8.5,2.8.5,1.8,0,3.3-.4,4.7-1.1,1.4-.7,2.6-1.8,3.6-3.2l-10-10.4ZM405.2,343.5c0-1.4-.5-2.7-1.4-3.7s-2.3-1.5-3.9-1.5-2.8.5-3.9,1.5c-1,1-1.6,2.2-1.6,3.7s.4,2.6,1.1,3.8c.7,1.2,1.8,2.4,3.1,3.5,1.8-.7,3.3-1.7,4.6-2.9,1.3-1.2,1.9-2.7,1.9-4.4Z"/>
    <path class="st0" d="M480.2,386.7v-23.6h-22v23.6h-13.6v-56.4h13.6v21.3h22v-21.3h13.6v56.4h-13.6Z"/>
    <path class="st0" d="M541.7,367.3v1.6c0,.5,0,1,0,1.5h-28.8c.1,1.1.4,2.1,1,3,.6.9,1.3,1.7,2.2,2.4.9.7,1.9,1.2,2.9,1.6,1.1.4,2.2.6,3.4.6,2.1,0,3.8-.4,5.3-1.2s2.6-1.8,3.5-3l9.1,5.7c-1.9,2.7-4.3,4.8-7.4,6.3-3.1,1.5-6.6,2.2-10.6,2.2s-5.8-.5-8.4-1.4c-2.7-.9-5-2.3-7-4.1-2-1.8-3.6-4-4.7-6.6-1.1-2.6-1.7-5.6-1.7-8.9s.6-6.2,1.7-8.8,2.6-4.9,4.5-6.7c1.9-1.8,4.2-3.3,6.8-4.3,2.6-1,5.4-1.5,8.4-1.5s5.6.5,8,1.5c2.4,1,4.5,2.4,6.3,4.3,1.8,1.9,3.1,4.1,4.1,6.8,1,2.7,1.5,5.7,1.5,9.1ZM529.7,362.3c0-2.1-.7-3.9-2-5.3-1.3-1.5-3.3-2.2-5.9-2.2s-2.4.2-3.5.6c-1.1.4-2,.9-2.8,1.6-.8.7-1.4,1.5-1.9,2.4-.5.9-.7,1.9-.8,2.9h16.8Z"/>
    <path class="st0" d="M546.4,352.4c2.3-2.2,5.1-3.9,8.2-5,3.1-1.1,6.3-1.7,9.5-1.7s6.2.4,8.5,1.2c2.3.8,4.2,2.1,5.6,3.8s2.5,3.9,3.1,6.5c.7,2.6,1,5.7,1,9.4v20h-11.9v-4.2h-.2c-1,1.6-2.5,2.9-4.6,3.8-2,.9-4.3,1.4-6.7,1.4s-3.2-.2-4.9-.6c-1.7-.4-3.3-1.1-4.7-2.1-1.4-1-2.6-2.2-3.5-3.8-.9-1.6-1.4-3.6-1.4-5.9s.8-5.2,2.3-6.9c1.6-1.8,3.6-3.1,6.1-4.1,2.5-1,5.2-1.6,8.2-1.9,3-.3,6-.5,8.8-.5v-.6c0-2-.7-3.4-2.1-4.3-1.4-.9-3.1-1.4-5.1-1.4s-3.7.4-5.4,1.2c-1.7.8-3.2,1.8-4.4,2.9l-6.6-7.1ZM570.4,369.4h-1.7c-1.4,0-2.9,0-4.3.2-1.5.1-2.8.4-3.9.8-1.1.4-2.1.9-2.8,1.6-.7.7-1.1,1.7-1.1,2.8s.2,1.4.5,1.9c.3.5.8,1,1.3,1.3.5.3,1.1.5,1.8.7.7.1,1.4.2,2,.2,2.7,0,4.7-.7,6.1-2.2,1.4-1.5,2.1-3.4,2.1-5.9v-1.4Z"/>
    <path class="st0" d="M603,356.7v15.2c0,1.9.4,3.3,1.1,4.2s2,1.4,3.9,1.4,1.3,0,2-.2c.7-.1,1.3-.3,1.8-.5l.2,9.6c-.9.3-2,.6-3.4.8-1.4.2-2.8.4-4.1.4-2.7,0-4.9-.3-6.7-1-1.8-.7-3.3-1.6-4.3-2.9-1.1-1.2-1.9-2.7-2.3-4.5-.5-1.7-.7-3.7-.7-5.8v-16.8h-6.4v-9.7h6.3v-10.4h12.8v10.4h9.3v9.7h-9.3Z"/>
    <path class="st0" d="M630.3,334.3c0,1-.2,2-.6,2.8s-.9,1.6-1.6,2.3c-.7.6-1.5,1.1-2.4,1.5-.9.4-1.9.6-2.9.6-2.1,0-3.9-.7-5.3-2.1-1.4-1.4-2.2-3.1-2.2-5.1s.2-1.9.6-2.7c.4-.9.9-1.6,1.6-2.3.7-.6,1.5-1.2,2.4-1.6.9-.4,1.9-.6,2.9-.6s2,.2,2.9.6c.9.4,1.7.9,2.4,1.5.7.6,1.2,1.4,1.6,2.3.4.9.6,1.8.6,2.8ZM616.3,386.7v-39.7h13.1v39.7h-13.1Z"/>
    <path class="st0" d="M663.3,386.7v-21.7c0-1.1,0-2.2-.3-3.2-.2-1-.5-1.9-.9-2.7-.4-.8-1-1.4-1.8-1.8-.8-.5-1.7-.7-2.9-.7s-2.2.2-3.1.7c-.9.5-1.6,1.1-2.2,1.9-.6.8-1,1.7-1.3,2.7-.3,1-.4,2.1-.4,3.2v21.5h-13.1v-39.7h12.7v5.5h.2c.5-.8,1.1-1.7,1.9-2.5.8-.8,1.7-1.5,2.7-2.1,1-.6,2.2-1.1,3.4-1.4,1.2-.4,2.5-.6,3.9-.6,2.7,0,4.9.5,6.8,1.4,1.9,1,3.4,2.2,4.5,3.7,1.1,1.5,2,3.3,2.5,5.2.5,2,.8,3.9.8,5.9v24.5h-13.1Z"/>
    <path class="st0" d="M726,382.9c0,3.9-.6,7.2-1.7,10.1-1.1,2.9-2.7,5.2-4.7,7.1-2,1.9-4.5,3.3-7.4,4.2-2.9.9-6.1,1.4-9.6,1.4s-7.1-.5-10.8-1.6c-3.7-1.1-6.9-2.6-9.6-4.6l6.5-9.3c1.9,1.7,4,3,6.3,3.8,2.3.8,4.6,1.2,6.8,1.2,3.8,0,6.7-1,8.5-3,1.8-2,2.7-4.7,2.7-8v-2.4h-.2c-1.2,1.6-2.9,2.9-4.9,3.8-2.1,1-4.4,1.4-7.1,1.4s-5.7-.5-8-1.6c-2.3-1.1-4.3-2.6-5.9-4.4-1.6-1.9-2.9-4-3.7-6.5-.8-2.5-1.3-5.1-1.3-7.8s.4-5.4,1.3-7.9c.8-2.5,2.1-4.7,3.7-6.6s3.6-3.4,5.9-4.6c2.3-1.1,5-1.7,8-1.7s4.9.5,7.2,1.5c2.3,1,4.1,2.6,5.5,4.7h.2v-5.1h12.3v35.9ZM713.6,366.6c0-1.3-.2-2.6-.7-3.8-.5-1.2-1.1-2.3-2-3.2-.9-.9-1.9-1.7-3-2.2-1.2-.5-2.5-.8-4-.8s-2.8.3-3.9.8c-1.1.5-2.1,1.2-2.9,2.2-.8.9-1.4,2-1.8,3.2-.4,1.2-.6,2.5-.6,3.9s.2,2.6.6,3.8,1,2.3,1.8,3.2c.8.9,1.8,1.7,2.9,2.2,1.1.6,2.5.8,3.9.8s2.8-.3,4-.8c1.2-.6,2.2-1.3,3-2.2.8-.9,1.5-2,1.9-3.2.5-1.2.7-2.5.7-3.9Z"/>
  </g>
  <path class="st4" d="M69.9,430.9c21.8-13.2,46.6-20.1,71.3-25.1-17.9-22.5-26.9-52.1-22.6-80.7,4.7-31.1,18.3-60,33.3-87.4,20.7-36,45.3-70.2,75.6-98.6h0c6.8,9.3,11.6,19.8,17.6,29.6,18.8,31,40.2,60.4,59.6,91.1,13.3,21.1,25.1,43.9,28.9,68.9,4.2,25.9-2.7,53.3-18.3,74.4-6.9,9.8-16.2,17.5-25.6,24.8,22.5,10,46.7,16.1,71.1,19.2,15.8,2,31.6.9,47.4,0-15.6,4-31.9,5.5-48,4.6-29.4-1.4-57.6-10.5-85.1-20.4-49.5-16.8-103.5-21.6-154.8-10.7"/>
  <path class="st3" d="M225.8,260.4c13.7,15.2,23.7,35.5,21.1,56.5-.8,8.8-6.3,16.1-9.5,24.1.4,6.9,9,9.4,14.8,9,10.8-.5,18.5-9,25-16.8,5.8,14.2,9.4,30.8,2.5,45.3-5.3,13.3-17.6,21.6-29.8,27.9-19.6-3.7-39.4-6-59.3-6.3-12.6-11.4-23.4-27.5-19.7-45.2,2.8-23,24.2-35.5,36.9-52.7,9.8-12,15.3-26.7,17.8-41.8h0Z"/>
  <path class="st2" d="M145,301.5c1.9,0,4,1.3,3.9,3.4-.4,2.2-1.8,4-2.6,5.9-6.3,12.6-7.2,27.7-2.6,40.9,1.4,3.9,3.9,7.2,5.6,10.9,1.9,4-1.7,9.5-6.3,9.1-4,0-6.1-3.9-7.9-6.9-7.6-14.3-7.9-32-1.4-46.7,2.8-6.1,5.7-12.7,11.3-16.7h0Z"/>
  <path class="st2" d="M227.6,359.2c-4.3,3.5-7.8,8.4-8.1,14.1-.2,2.4,1,4.5,1.5,6.8-.4,1.8-2.8,2.1-4.3,1.8-2.9-.6-4.5-3.2-5.9-5.5-2.2,3.5-3.8,7.8-2.6,11.9.8,3.8,3.7,6.5,6.7,8.7,5.4-.1,10.7.1,16,.9,3.8-2.5,7.4-6.3,7.2-11.2.3-6.2-4.9-10.5-7.5-15.6-2.1-3.6-2.9-7.8-2.9-11.9h0Z"/>
</svg>