<?xml version="1.0" encoding="UTF-8"?>
<svg id="Layer_1" xmlns="http://www.w3.org/2000/svg" version="1.1" viewBox="0 0 344.7 323.4">
  <!-- Generator: Adobe Illustrator 29.8.2, SVG Export Plug-In . SVG Version: 2.1.1 Build 3)  -->
  <defs>
    <style>
      .st0 {
        fill: #fff;
      }

      .st1 {
        fill: #f47920;
      }

      .st2 {
        fill: #0e5e90;
      }
    </style>
  </defs>
  <path class="st2" d="M6.4,301.1c21.8-13.2,46.6-20.1,71.3-25.1-17.9-22.5-26.9-52.1-22.6-80.7,4.7-31.1,18.3-60,33.3-87.4,20.7-36,45.3-70.2,75.6-98.6h0c6.8,9.3,11.6,19.8,17.6,29.6,18.8,31,40.2,60.4,59.6,91.1,13.3,21.1,25.1,43.9,28.9,68.9,4.2,25.9-2.7,53.3-18.3,74.4-6.9,9.8-16.2,17.5-25.6,24.8,22.5,10,46.7,16.1,71.1,19.2,15.8,2,31.6.9,47.4,0-15.6,4-31.9,5.5-48,4.6-29.4-1.4-57.6-10.5-85.1-20.4-49.5-16.8-103.5-21.6-154.8-10.7"/>
  <path class="st1" d="M162.4,130.6c13.7,15.2,23.7,35.5,21.1,56.5-.8,8.8-6.3,16.1-9.5,24.1.4,6.9,9,9.4,14.8,9,10.8-.5,18.5-9,25-16.8,5.8,14.2,9.4,30.8,2.5,45.3-5.3,13.3-17.6,21.6-29.8,27.9-19.6-3.7-39.4-6-59.3-6.3-12.6-11.4-23.4-27.5-19.7-45.2,2.8-23,24.2-35.5,36.9-52.7,9.8-12,15.3-26.7,17.8-41.8h.2Z"/>
  <path class="st0" d="M81.5,171.8c1.9,0,4,1.3,3.9,3.4-.4,2.2-1.8,4-2.6,5.9-6.3,12.6-7.2,27.7-2.6,40.9,1.4,3.9,3.9,7.2,5.6,10.9,1.9,4-1.7,9.5-6.3,9.1-4,0-6.1-3.9-7.9-6.9-7.6-14.3-7.9-32-1.4-46.7,2.8-6.1,5.7-12.7,11.3-16.7h0Z"/>
  <path class="st0" d="M164.1,229.4c-4.3,3.5-7.8,8.4-8.1,14.1-.2,2.4,1,4.5,1.5,6.8-.4,1.8-2.8,2.1-4.3,1.8-2.9-.6-4.5-3.2-5.9-5.5-2.2,3.5-3.8,7.8-2.6,11.9.8,3.8,3.7,6.5,6.7,8.7,5.4-.1,10.7.1,16,.9,3.8-2.5,7.4-6.3,7.2-11.2.3-6.2-4.9-10.5-7.5-15.6-2.1-3.6-2.9-7.8-2.9-11.9h-.1Z"/>
</svg>